HIERARCHY
ROOT Hips
{
 OFFSET 0.000000 0.000000 0.000000
 CHANNELS 6 Xposition Yposition Zposition Yrotation Xrotation Zrotation
 JOINT Chest
 {
  OFFSET 0.000000 9.585900 0.002600
  CHANNELS 3 Yrotation Xrotation Zrotation
  JOINT Chest2
  {
   OFFSET 0.000000 9.601200 -0.005300
   CHANNELS 3 Yrotation Xrotation Zrotation
   JOINT Chest3
   {
    OFFSET 0.000000 9.561800 0.000000
    CHANNELS 3 Yrotation Xrotation Zrotation
    JOINT Chest4
    {
     OFFSET 0.000000 9.552100 0.000000
     CHANNELS 3 Yrotation Xrotation Zrotation
     JOINT Neck
     {
      OFFSET 0.000000 14.453000 0.000000
      CHANNELS 3 Yrotation Xrotation Zrotation
      JOINT Head
      {
       OFFSET 0.000000 8.936500 -0.011300
       CHANNELS 3 Yrotation Xrotation Zrotation
       End Site
       {
        OFFSET 0.000000 17.073600 -0.006000
       }
      }
     }
     JOINT RightCollar
     {
      OFFSET -2.921100 9.558500 0.000000
      CHANNELS 3 Yrotation Xrotation Zrotation
      JOINT RightShoulder
      {
       OFFSET -13.519700 0.000000 0.000000
       CHANNELS 3 Yrotation Xrotation Zrotation
       JOINT RightElbow
       {
        OFFSET 0.000000 -29.696600 0.000000
        CHANNELS 3 Yrotation Xrotation Zrotation
        JOINT RightWrist
        {
         OFFSET 0.000000 -24.004700 0.000000
         CHANNELS 3 Yrotation Xrotation Zrotation
         End Site
         {
          OFFSET 0.000000 -17.728500 0.000000
         }
        }
       }
      }
     }
     JOINT LeftCollar
     {
      OFFSET 2.921100 9.558500 0.000000
      CHANNELS 3 Yrotation Xrotation Zrotation
      JOINT LeftShoulder
      {
       OFFSET 13.519700 0.000000 0.000000
       CHANNELS 3 Yrotation Xrotation Zrotation
       JOINT LeftElbow
       {
        OFFSET 0.000000 -29.696600 0.000000
        CHANNELS 3 Yrotation Xrotation Zrotation
        JOINT LeftWrist
        {
         OFFSET 0.000000 -24.004700 0.000000
         CHANNELS 3 Yrotation Xrotation Zrotation
         End Site
         {
          OFFSET 0.000000 -17.728500 0.000000
         }
        }
       }
      }
     }
    }
   }
  }
 }
 JOINT RightHip
 {
  OFFSET -7.771700 -0.012900 -0.001300
  CHANNELS 3 Yrotation Xrotation Zrotation
  JOINT RightKnee
  {
   OFFSET 0.000000 -40.869800 0.001200
   CHANNELS 3 Yrotation Xrotation Zrotation
   JOINT RightAnkle
   {
    OFFSET 0.000000 -39.717900 0.002100
    CHANNELS 3 Yrotation Xrotation Zrotation
    JOINT RightToe
    {
     OFFSET 0.000000 -4.965400 11.033500
     CHANNELS 3 Yrotation Xrotation Zrotation
     End Site
     {
      OFFSET 0.000000 -1.423100 5.872300
     }
    }
   }
  }
 }
 JOINT LeftHip
 {
  OFFSET 7.771700 -0.012900 -0.001300
  CHANNELS 3 Yrotation Xrotation Zrotation
  JOINT LeftKnee
  {
   OFFSET 0.000000 -40.869800 0.001200
   CHANNELS 3 Yrotation Xrotation Zrotation
   JOINT LeftAnkle
   {
    OFFSET 0.000000 -39.717900 0.002100
    CHANNELS 3 Yrotation Xrotation Zrotation
    JOINT LeftToe
    {
     OFFSET 0.000000 -4.965400 11.033500
     CHANNELS 3 Yrotation Xrotation Zrotation
     End Site
     {
      OFFSET 0.000000 -1.423100 5.872300
     }
    }
   }
  }
 }
}
MOTION
Frames: 12
Frame Time: 0.008333
0.000000 85.388000 0.000000 0.000000 -5.767877 0.000000 0.000000 11.653817 0.000000 0.000000 -5.885947 0.000000 0.000000 -0.000000 0.000000 0.000000 -0.000000 0.000000 0.000000 12.528835 0.000000 0.000000 0.711642 0.000000 0.000000 -0.000000 0.000000 0.000000 0.000000 -90.000000 0.000000 -2.309062 0.000000 0.000000 2.309062 0.000000 0.000000 -0.000000 0.000000 0.000000 -0.000000 90.000000 0.000000 -2.309062 0.000000 0.000000 2.309062 0.000000 0.000000 8.520406 0.000000 0.000000 1.905762 0.000000 -0.000000 -4.658285 0.000000 0.000000 -0.000000 0.000000 0.000000 8.520406 0.000000 0.000000 1.905762 0.000000 -0.000000 -4.658285 0.000000 0.000000 -0.000000 0.000000
-140.342805 49.043426 18.822364 175.282267 -33.808437 -4.855885 0.162456 16.804741 2.131920 -0.012523 1.760191 0.171442 -0.005528 2.914301 0.309676 0.155401 14.804006 1.618623 -1.764009 24.593958 1.683511 -3.531670 9.889018 3.458925 -2.666028 -0.986881 -2.052059 -3.741096 -10.915150 -11.372947 -56.442867 -59.671630 99.013246 13.230222 12.733248 4.332155 -0.403370 -2.827271 1.986105 -6.755405 -2.010354 12.665412 72.321003 -68.601826 -111.880091 1.929118 10.975608 3.737818 -4.124179 -51.360004 -3.890156 -152.342785 84.236425 -140.198904 -30.592153 -1.209095 -4.891256 -0.222659 -11.862591 1.365251 -16.942276 -52.375290 20.918145 -76.104711 66.312674 -80.153289 30.391839 6.708592 13.699679 0.085737 -0.286829 0.034036
-140.346975 49.042944 18.823318 175.287607 -33.801477 -4.873574 0.155353 16.811382 2.132172 -0.012595 1.761370 0.169140 -0.005411 2.918973 0.310047 0.142308 14.843350 1.608579 -1.766864 24.490579 1.692497 -3.644704 9.631580 3.459388 -2.629412 -0.990247 -2.039598 -4.107637 -11.177881 -11.321730 -57.351307 -60.139322 99.376170 13.506241 12.595103 4.955178 -0.387981 -2.858881 1.981957 -6.788239 -1.948404 12.692001 72.201620 -68.551603 -111.799104 1.890340 11.112120 3.767472 -4.124911 -51.363592 -3.873133 -152.252609 84.242057 -140.107675 -30.604241 -1.200810 -4.888032 -0.132341 -11.858854 1.352241 -16.956778 -52.384766 20.930061 -76.116473 66.317081 -80.152904 30.392397 6.717367 13.698223 0.086828 -0.292187 0.033261
-140.351199 49.043225 18.823099 175.282414 -33.800576 -4.887596 0.157656 16.823053 2.130700 -0.010627 1.758605 0.169895 -0.004365 2.922641 0.310397 0.149275 14.837318 1.621158 -1.825600 24.383427 1.671488 -3.696110 9.472113 3.464655 -2.610664 -0.955425 -2.047567 -4.484368 -11.416209 -11.250158 -58.178482 -60.547583 99.643628 13.783221 12.431070 5.591320 -0.389241 -2.852031 1.965342 -6.820259 -1.879526 12.716603 72.006902 -68.494410 -111.645822 1.860898 11.261231 3.814423 -4.119906 -51.360712 -3.856178 -152.233015 84.254619 -140.085375 -30.615039 -1.193835 -4.884427 -0.171451 -11.852368 1.363035 -16.966602 -52.386208 20.947100 -76.132560 66.323922 -80.166825 30.397599 6.713598 13.704485 0.080283 -0.296180 0.031337
-140.355973 49.043924 18.821885 175.276322 -33.801668 -4.896775 0.160485 16.830514 2.126514 -0.006149 1.759896 0.168192 -0.002409 2.925086 0.310704 0.149438 14.848601 1.623349 -1.850426 24.279390 1.670833 -3.729437 9.346582 3.483191 -2.577701 -0.946845 -2.053326 -4.886064 -11.624697 -11.150005 -58.876924 -60.874328 99.786286 14.020604 12.246801 6.202695 -0.385225 -2.869565 1.972502 -6.835652 -1.843258 12.726929 71.649075 -68.425888 -111.344917 1.843792 11.421631 3.878921 -4.109178 -51.356949 -3.846546 -152.308347 84.267707 -140.162661 -30.619870 -1.185285 -4.876569 -0.171462 -11.848469 1.363776 -16.969727 -52.385594 20.957424 -76.145273 66.328054 -80.177977 30.403083 6.711727 13.708038 0.075542 -0.301086 0.031510
-140.359378 49.044605 18.820582 175.263575 -33.799200 -4.906138 0.171528 16.832174 2.124485 0.000765 1.764282 0.167721 -0.002553 2.920768 0.320426 0.162776 14.864313 1.609158 -1.856707 24.231535 1.696052 -3.750166 9.220615 3.513584 -2.576553 -0.975154 -2.040603 -5.286468 -11.784748 -11.039029 -59.389336 -61.095044 99.762985 14.177158 12.051561 6.747225 -0.402120 -2.884984 1.974294 -6.847068 -1.807376 12.756822 71.262625 -68.357796 -111.009058 1.837182 11.590646 3.963078 -4.105801 -51.355507 -3.828329 -152.298731 84.275790 -140.150490 -30.617991 -1.183677 -4.877775 -0.166717 -11.843015 1.365982 -16.972760 -52.388264 20.977735 -76.160447 66.326403 -80.194499 30.417716 6.711056 13.715012 0.065561 -0.309543 0.030997
-140.359852 49.044909 18.819936 175.248519 -33.788243 -4.924673 0.195458 16.828947 2.135628 0.001175 1.764530 0.166479 -0.002146 2.917291 0.330946 0.168836 14.865990 1.610287 -1.860857 24.201890 1.704250 -3.742667 9.145804 3.549622 -2.573929 -1.004584 -2.049385 -5.706288 -11.927710 -10.911516 -59.643583 -61.162904 99.527348 14.233570 11.852300 7.161206 -0.398773 -2.896813 1.941465 -6.889192 -1.729230 12.805669 70.957682 -68.300185 -110.729085 1.838978 11.767548 4.069639 -4.126468 -51.359642 -3.786889 -152.294905 84.286865 -140.145192 -30.608243 -1.184173 -4.885861 -0.161509 -11.838035 1.367999 -16.991495 -52.396129 21.022880 -76.174395 66.331254 -80.214185 30.428256 6.702903 13.732361 0.050291 -0.312729 0.023997
-140.360422 49.045212 18.818501 175.244022 -33.775133 -4.938437 0.205248 16.825425 2.133448 0.004585 1.761382 0.166609 0.002748 2.926543 0.314634 0.181898 14.864644 1.626566 -1.855878 24.162947 1.727067 -3.713295 9.125227 3.590910 -2.581601 -1.051049 -2.049614 -6.148197 -12.063274 -10.774428 -59.605612 -61.036030 99.071538 14.177533 11.660675 7.372865 -0.405540 -2.915145 1.956940 -6.932392 -1.613655 12.828308 70.777280 -68.254348 -110.556280 1.849551 11.950056 4.203633 -4.148114 -51.368419 -3.760974 -152.320036 84.295895 -140.167610 -30.614009 -1.184786 -4.893871 -0.155798 -11.838063 1.370802 -17.006959 -52.407695 21.054833 -76.187087 66.329780 -80.226612 30.427101 6.703311 13.736006 0.049593 -0.316560 0.023949
-140.360221 49.046013 18.815688 175.250061 -33.765025 -4.950976 0.206048 16.821074 2.125205 0.008198 1.761627 0.166293 0.004411 2.926087 0.312933 0.192372 14.865031 1.621343 -1.821249 24.151253 1.751438 -3.680603 9.131276 3.646233 -2.593103 -1.094882 -2.048988 -6.609565 -12.195777 -10.639041 -59.296641 -60.687360 98.425897 13.997291 11.491149 7.319873 -0.410664 -2.926644 1.977952 -6.955578 -1.558101 12.840210 70.440069 -68.206993 -110.239205 1.867201 12.129936 4.361379 -4.172614 -51.373075 -3.742351 -152.296977 84.301294 -140.139611 -30.653743 -1.189763 -4.891354 -0.123365 -11.839416 1.362775 -17.018138 -52.416634 21.073504 -76.197782 66.324025 -80.233550 30.425298 6.706370 13.734991 0.054968 -0.320302 0.026121
-140.360226 49.047304 18.811327 175.250587 -33.759796 -4.946973 0.211095 16.821920 2.104633 0.007803 1.759694 0.170214 0.010609 2.927740 0.299704 0.195365 14.863364 1.620727 -1.777459 24.160869 1.776124 -3.627426 9.149955 3.695752 -2.600876 -1.142502 -2.050150 -7.075639 -12.322262 -10.516866 -58.769721 -60.106762 97.634374 13.683708 11.353494 6.934974 -0.400973 -2.947539 1.984639 -6.982163 -1.492447 12.861351 70.129987 -68.173178 -109.937714 1.889204 12.301350 4.533537 -4.177383 -51.376741 -3.742753 -152.287578 84.301837 -140.131017 -30.684819 -1.192295 -4.886639 -0.136278 -11.841858 1.364802 -17.009680 -52.423285 21.069057 -76.207250 66.320909 -80.248174 30.435494 6.702876 13.746071 0.048102 -0.325376 0.022664
-140.359298 49.048697 18.806328 175.242725 -33.754792 -4.932322 0.222137 16.822102 2.078654 0.002822 1.755098 0.183047 0.021874 2.928705 0.279664 0.219675 14.861599 1.576462 -1.731086 24.176327 1.846628 -3.558780 9.181805 3.737803 -2.632904 -1.163872 -1.988608 -7.518888 -12.462264 -10.427741 -58.099727 -59.311995 96.755264 13.225402 11.251156 6.155429 -0.406731 -2.962413 2.035821 -7.009440 -1.432004 12.880609 69.863692 -68.155173 -109.669661 1.916561 12.460291 4.714810 -4.168741 -51.382260 -3.751483 -152.290385 84.300655 -140.135565 -30.705955 -1.195887 -4.883474 -0.094409 -11.845231 1.356062 -16.986554 -52.431296 21.056340 -76.214928 66.318572 -80.270868 30.457722 6.692251 13.774381 0.027671 -0.331161 0.012070
-140.352486 49.049797 18.802724 175.234374 -33.740315 -4.942821 0.243839 16.813737 2.076050 0.004362 1.753566 0.181754 0.028767 2.923972 0.276339 0.226452 14.855380 1.576124 -1.709961 24.188641 1.873104 -3.462255 9.214558 3.748656 -2.652232 -1.181197 -1.973371 -7.913685 -12.582253 -10.358708 -57.374329 -58.360021 95.860265 12.602425 11.174057 4.937925 -0.384256 -2.972735 2.030622 -7.041016 -1.372407 12.909140 69.652750 -68.148841 -109.448338 1.947521 12.601173 4.899418 -4.199903 -51.389064 -3.719269 -152.367109 84.301990 -140.214114 -30.655696 -1.205456 -4.902012 -0.121986 -11.845108 1.367393 -16.993103 -52.441036 21.087063 -76.235469 66.311268 -80.290454 30.468045 6.679456 13.783456 0.018472 -0.327748 0.007528
